<?xml version="1.0" standalone="no"?>
<svg xmlns:xlink="http://www.w3.org/1999/xlink" id="wave" style="transform:rotate(0deg); transition: 0.3s" viewBox="0 0 1440 490" version="1.1" xmlns="http://www.w3.org/2000/svg"><defs><linearGradient id="sw-gradient-0" x1="0" x2="0" y1="1" y2="0"><stop stop-color="rgba(177, 9, 177, 1)" offset="0%"/><stop stop-color="rgba(0, 0, 0, 1)" offset="100%"/></linearGradient></defs><path style="transform:translate(0, 0px); opacity:1" fill="url(#sw-gradient-0)" d="M0,0L60,65.3C120,131,240,261,360,277.7C480,294,600,196,720,204.2C840,212,960,327,1080,318.5C1200,310,1320,180,1440,163.3C1560,147,1680,245,1800,310.3C1920,376,2040,408,2160,400.2C2280,392,2400,343,2520,269.5C2640,196,2760,98,2880,73.5C3000,49,3120,98,3240,98C3360,98,3480,49,3600,24.5C3720,0,3840,0,3960,49C4080,98,4200,196,4320,212.3C4440,229,4560,163,4680,114.3C4800,65,4920,33,5040,24.5C5160,16,5280,33,5400,81.7C5520,131,5640,212,5760,253.2C5880,294,6000,294,6120,261.3C6240,229,6360,163,6480,179.7C6600,196,6720,294,6840,294C6960,294,7080,196,7200,204.2C7320,212,7440,327,7560,367.5C7680,408,7800,376,7920,343C8040,310,8160,278,8280,261.3C8400,245,8520,245,8580,245L8640,245L8640,490L8580,490C8520,490,8400,490,8280,490C8160,490,8040,490,7920,490C7800,490,7680,490,7560,490C7440,490,7320,490,7200,490C7080,490,6960,490,6840,490C6720,490,6600,490,6480,490C6360,490,6240,490,6120,490C6000,490,5880,490,5760,490C5640,490,5520,490,5400,490C5280,490,5160,490,5040,490C4920,490,4800,490,4680,490C4560,490,4440,490,4320,490C4200,490,4080,490,3960,490C3840,490,3720,490,3600,490C3480,490,3360,490,3240,490C3120,490,3000,490,2880,490C2760,490,2640,490,2520,490C2400,490,2280,490,2160,490C2040,490,1920,490,1800,490C1680,490,1560,490,1440,490C1320,490,1200,490,1080,490C960,490,840,490,720,490C600,490,480,490,360,490C240,490,120,490,60,490L0,490Z"/></svg>